<svg width="213" height="53" viewBox="0 0 213 53" fill="none" xmlns="http://www.w3.org/2000/svg">
<path d="M40.344 18.288C40.008 18.288 39.768 18.192 39.72 17.856C39.72 17.568 39.672 17.328 39.672 17.04C39.624 16.656 39.528 16.32 39.336 15.984C39.144 15.744 38.904 15.552 38.568 15.552C38.424 15.6 38.328 15.6 38.184 15.6C37.848 15.648 37.752 15.552 37.8 15.216C37.8 15.024 37.8 14.832 37.848 14.688C37.848 14.496 37.848 14.352 37.752 14.208C37.32 13.536 36.36 13.44 35.784 13.968L35.496 14.352C35.016 14.928 34.392 15.312 33.624 15.36C33.048 15.36 32.52 15.648 32.04 15.984C31.512 16.368 31.08 16.848 30.744 17.376L30.312 17.952C28.728 19.872 27.192 21.744 25.896 23.856L25.32 24.576C24.792 25.296 24.216 26.016 23.736 26.784C23.208 27.6 22.728 28.464 22.008 29.136C21.864 29.328 21.72 29.568 21.432 29.568C21.288 29.568 21.24 29.28 21.288 28.8C21.288 28.8 21.288 28.752 21.336 28.752C21.768 27.072 21.768 25.344 22.152 23.712C22.2 23.472 22.2 23.184 22.104 22.992C21.96 22.56 21.96 22.224 22.104 21.84C22.152 21.744 22.152 21.6 22.2 21.456C22.248 20.16 22.296 18.864 22.248 17.568C22.248 17.184 22.2 16.752 21.912 16.464C21.768 16.224 21.768 15.984 21.672 15.744C21.48 14.832 21.336 13.92 20.472 13.296C20.472 13.248 20.424 13.2 20.376 13.152C20.136 12.672 19.752 12.336 19.224 12.144C18.936 12.048 18.648 11.856 18.552 11.52C18.456 11.232 18.264 11.136 18.024 10.992C17.544 10.752 17.064 10.704 16.536 10.944C16.152 11.136 15.816 11.376 15.576 11.712C15.048 12.384 14.568 13.008 13.896 13.536C13.752 13.632 13.608 13.872 13.512 14.016C13.128 14.592 12.84 15.168 12.408 15.696C11.88 16.368 11.448 17.136 11.112 17.904C10.584 19.056 10.056 20.208 9.48001 21.36C9.00001 22.368 8.47201 23.376 8.13601 24.432C7.94401 25.008 7.70401 25.584 7.46401 26.112C7.36801 26.4 7.22401 26.64 7.12801 26.88C6.74401 28.128 6.36001 29.376 5.83201 30.576C5.35201 31.68 4.92001 32.832 4.48801 33.984C4.24801 34.608 3.96001 35.28 3.76801 35.952C3.38401 37.44 2.85601 38.88 2.37601 40.368C1.94401 41.52 1.56001 42.72 1.22401 43.92C0.98401 44.88 0.84001 45.888 0.64801 46.848C0.50401 47.52 0.64801 48.096 0.98401 48.624C1.17601 48.96 1.51201 49.008 1.80001 49.104C1.99201 49.152 2.04001 48.96 2.13601 48.864C2.23201 48.768 2.32801 48.816 2.32801 48.912C2.37601 49.056 2.37601 49.248 2.42401 49.392C2.42401 49.68 2.61601 49.968 2.80801 50.16C3.14401 50.448 3.43201 50.448 3.67201 50.064C3.81601 49.872 3.96001 49.632 4.15201 49.44C4.15201 49.392 4.24801 49.392 4.29601 49.392C4.34401 49.392 4.39201 49.488 4.39201 49.536C4.39201 49.728 4.29601 49.92 4.29601 50.16C4.24801 50.208 4.29601 50.352 4.34401 50.4H4.58401C4.92001 50.208 5.11201 49.92 5.20801 49.632C5.44801 48.912 5.64001 48.24 5.92801 47.52C6.55201 45.792 7.17601 44.064 7.89601 42.336C9.14401 39.168 10.44 36.048 11.784 32.88C12.024 32.256 12.312 31.68 12.6 31.056C12.792 30.72 12.984 30.384 13.32 30.144C13.176 31.056 12.696 31.872 12.36 32.736C12.072 33.312 11.784 33.888 11.688 34.512C11.976 34.128 12.168 33.696 12.312 33.264C12.504 32.88 12.696 32.592 13.128 32.496C13.224 32.928 13.224 33.312 13.128 33.744L12.984 34.56C12.792 36.432 12.456 38.304 12.36 40.176C12.36 40.32 12.36 40.464 12.312 40.608C12.12 41.424 12.072 42.24 11.928 43.056C11.688 44.448 11.832 45.84 11.688 47.232C11.64 47.76 11.784 48.24 12.072 48.672C12.456 49.2 12.696 49.248 13.272 48.864C13.416 48.768 13.512 48.816 13.56 48.96L13.704 49.68C13.704 49.92 13.8 50.112 13.992 50.304C14.328 50.736 14.76 50.736 15.096 50.256C15.24 50.112 15.336 49.92 15.432 49.728C15.528 49.584 15.672 49.488 15.816 49.584C15.96 49.632 15.96 49.776 15.912 49.92L15.768 50.352C15.72 50.448 15.72 50.592 15.816 50.688C15.96 50.784 16.104 50.736 16.2 50.64C16.344 50.496 16.44 50.352 16.536 50.208C16.68 50.016 16.776 49.776 16.872 49.584C16.968 49.44 17.016 49.248 17.208 49.344C17.352 49.392 17.304 49.584 17.352 49.728L18.6 47.28C18.504 47.328 18.408 47.568 18.216 47.472C18.12 47.376 18.216 47.232 18.216 47.136L18.648 46.224C19.656 44.304 20.616 42.432 21.624 40.56C23.544 37.152 25.608 33.792 27.672 30.528C28.008 30 28.296 29.52 28.632 29.04C28.68 28.944 28.776 28.752 28.968 28.8C29.16 28.896 29.016 29.04 28.968 29.184C28.92 29.28 28.872 29.376 28.824 29.424C28.632 29.76 28.488 30.144 28.296 30.48L28.584 30.288C28.872 30.192 29.112 30.384 29.064 30.624C29.016 30.864 28.968 31.104 28.872 31.344C28.584 32.016 28.392 32.736 28.248 33.408C27.768 35.616 27.528 37.872 26.904 40.032V40.224C26.712 41.568 26.568 42.912 26.52 44.304C26.52 44.928 26.568 45.552 26.904 46.128C27.048 46.416 27.24 46.704 27.576 46.848C28.008 46.992 28.296 47.328 28.488 47.664C28.632 47.904 28.824 48.144 29.016 48.336C29.256 48.528 29.496 48.672 29.832 48.528C30.12 48.432 30.36 48.384 30.6 48.624C30.84 48.768 31.032 48.72 31.272 48.528C31.752 48.096 32.088 47.616 32.184 46.944C32.424 45.408 32.712 43.872 33.096 42.384C33.144 42.288 33.192 42.144 33.048 42.096C32.76 42.432 32.712 42.864 32.568 43.248C32.52 43.344 32.472 43.344 32.424 43.296C32.376 43.296 32.376 43.248 32.376 43.248C32.376 43.056 32.424 42.864 32.472 42.72C32.712 41.76 32.904 40.8 33.192 39.888C33.72 37.872 34.344 35.856 34.92 33.84C34.968 33.6 35.064 33.312 35.16 33.072L37.032 28.416L37.896 26.304C37.944 26.208 37.992 26.016 38.136 26.112C38.28 26.16 38.184 26.352 38.136 26.448C37.224 28.512 36.504 30.624 35.736 32.736C35.16 34.464 34.632 36.192 34.056 37.92C33.816 38.736 33.576 39.504 33.384 40.32C33.336 40.512 33.24 40.704 33.288 40.944L33.336 40.992H33.432L33.576 40.656L34.68 36.96C34.968 36 35.208 34.992 35.544 34.032C36.264 32.16 37.032 30.288 37.704 28.416C37.8 28.032 37.992 27.744 38.088 27.408C38.472 26.448 38.904 25.536 39.048 24.48C39.24 24.144 39.384 23.76 39.48 23.376C39.528 23.184 39.432 23.04 39.24 22.992C39.336 22.608 39.432 22.272 39.624 21.888C39.72 21.696 39.864 21.456 39.864 21.216C39.864 20.64 40.056 20.112 40.248 19.584C40.392 19.152 40.44 18.72 40.344 18.24V18.288ZM33.912 16.272L34.104 16.08C34.056 16.128 34.008 16.176 33.96 16.272H33.912ZM14.088 18.096C14.088 18.048 14.04 18.048 14.04 18C14.088 17.808 14.28 17.664 14.424 17.52C14.328 17.712 14.232 17.904 14.184 18.096H14.088ZM39.528 19.536C39.48 19.536 39.432 19.536 39.432 19.488C39.432 19.488 39.432 19.44 39.384 19.44C39.432 19.2 39.528 19.008 39.672 18.912C39.72 18.864 39.72 18.864 39.768 18.864L39.816 18.912C39.816 19.152 39.672 19.344 39.528 19.536ZM12.792 20.544C12.984 19.824 13.08 19.632 13.608 19.008C13.464 19.632 13.368 19.872 12.792 20.544ZM12.12 21.888C12.264 21.84 12.168 22.08 11.832 22.464C11.928 22.272 11.928 22.032 12.12 21.888ZM21.576 24.192C21.576 24.144 21.672 24.144 21.672 24.096L21.768 24.24L21.672 24.48L21.624 24.528L21.528 24.432C21.528 24.336 21.528 24.24 21.576 24.192ZM38.904 24.672C38.808 24.768 38.76 24.96 38.568 24.912C38.472 24.912 38.472 24.768 38.52 24.72C38.664 24.384 38.712 24.384 39 24.48L38.904 24.672ZM27.72 24.672L27.864 24.432V24.528L27.72 24.672ZM27.624 24.768L27.672 24.72C27.624 24.768 27.624 24.768 27.624 24.768ZM26.52 26.4H26.568C26.568 26.4 26.568 26.448 26.52 26.496V26.4ZM21.24 26.784C21.24 26.736 21.336 26.688 21.384 26.736C21.432 26.736 21.432 26.832 21.432 26.88C21.384 27.168 21.288 27.504 21.048 27.744C21 27.36 21.048 27.072 21.24 26.784ZM12.936 27.552C13.032 27.408 13.032 27.216 13.224 27.168C13.368 27.12 13.224 27.312 12.936 27.552ZM9.00001 29.424C9.00001 29.376 9.04801 29.328 9.09601 29.28C9.09601 29.328 9.09601 29.376 9.04801 29.472C9.04801 29.52 9.00001 29.52 8.95201 29.568C8.95201 29.52 8.95201 29.472 9.00001 29.424ZM10.872 32.592C10.872 31.968 11.208 30.864 11.592 30.144C11.736 29.904 11.832 29.664 12.216 29.472C11.88 30.576 11.352 31.536 10.872 32.592ZM20.424 30.672L20.376 30.624C20.424 30.48 20.424 30.336 20.472 30.192C20.472 30.144 20.568 30.096 20.616 30.144L20.712 30.288L20.568 30.672H20.424ZM28.296 30.48C28.104 30.624 28.056 30.768 27.96 30.96L28.296 30.48ZM27.288 31.968C27.192 32.064 27.144 32.208 27.048 32.304C27.048 32.4 27 32.448 27 32.496L27.144 32.352C27.192 32.208 27.432 32.16 27.288 31.968ZM21.528 33.936C21.624 33.696 21.72 33.552 21.912 33.408C21.816 33.6 21.72 33.792 21.528 33.936ZM26.232 33.744C26.184 33.84 26.136 33.888 26.088 33.936L26.232 33.84V33.744ZM26.088 33.936C26.04 34.08 25.944 34.176 25.896 34.32C25.992 34.224 26.04 34.08 26.088 33.936ZM10.152 34.128C10.152 34.176 10.056 34.272 10.056 34.32C10.056 34.224 10.056 34.176 10.104 34.08C10.104 34.032 10.152 33.984 10.2 33.984C10.152 34.032 10.2 34.08 10.152 34.128ZM21.144 34.512C21.24 34.272 21.336 34.128 21.528 33.984C21.432 34.224 21.336 34.368 21.144 34.512ZM25.896 34.32C25.8 34.512 25.656 34.656 25.56 34.848C25.656 34.704 25.8 34.512 25.896 34.32ZM11.688 34.512C11.112 35.472 10.776 36.528 10.392 37.584C11.016 36.624 11.4 35.568 11.688 34.512ZM25.56 34.848C25.464 34.992 25.416 35.088 25.368 35.232C25.416 35.136 25.464 34.992 25.56 34.848ZM25.368 35.232C25.224 35.424 25.128 35.616 24.984 35.76V35.808L25.368 35.232ZM7.60801 40.608C7.60801 40.656 7.51201 40.656 7.46401 40.704L7.41601 40.512C7.56001 40.176 7.65601 39.792 7.80001 39.408C8.32801 38.112 8.80801 36.816 9.48001 35.616C9.43201 35.856 9.43201 36.144 9.33601 36.384L7.60801 40.608ZM24.984 35.808C24.6 36.192 24.312 36.672 24.072 37.248C24.456 36.816 24.792 36.384 24.984 35.808ZM23.688 37.776C23.784 37.728 23.832 37.68 23.928 37.584L24.072 37.248C24.024 37.344 23.976 37.488 23.88 37.584C23.832 37.68 23.784 37.728 23.688 37.776ZM10.392 37.584C10.344 37.728 10.248 37.872 10.2 37.968C10.296 37.872 10.344 37.728 10.392 37.584ZM23.352 38.688C23.496 38.448 23.592 38.16 23.688 37.872C23.4 38.256 23.16 38.64 22.92 38.976C21.624 41.232 20.472 43.584 19.272 45.888C19.128 46.176 19.032 46.416 18.984 46.704C19.752 45.552 20.376 44.352 21 43.104C21.72 41.616 22.536 40.176 23.352 38.688ZM10.152 38.112C10.152 38.064 10.2 38.016 10.2 37.968L10.152 38.112ZM10.152 38.112C10.104 38.16 10.056 38.256 10.008 38.352H10.056L10.152 38.112ZM7.03201 45.6C6.69601 46.368 6.36001 47.232 6.21601 48.096C6.55201 47.616 6.74401 47.04 6.93601 46.512C7.36801 45.312 7.84801 44.064 8.32801 42.864L9.91201 38.88L10.056 38.352C9.76801 38.736 9.52801 39.168 9.38401 39.648C8.56801 41.616 7.80001 43.584 7.03201 45.6ZM6.93601 42.384C6.64801 43.296 6.31201 44.16 5.88001 45.072C5.73601 44.832 5.83201 44.64 5.88001 44.496L6.74401 42.336C6.74401 42.24 6.79201 42.192 6.84001 42.192C6.98401 42.192 6.93601 42.288 6.93601 42.384ZM19.176 43.248L19.128 43.296V43.248C19.224 43.152 19.272 43.008 19.32 42.864C19.416 42.768 19.464 42.672 19.512 42.528C19.464 42.672 19.416 42.768 19.32 42.912L19.176 43.248ZM32.088 45.072C31.944 44.928 32.088 44.496 32.28 44.352C32.28 44.352 32.328 44.352 32.328 44.4C32.472 44.544 32.376 44.976 32.136 45.072H32.088ZM18.792 46.896L18.984 46.752V46.704L18.792 46.896ZM18.792 46.896C18.744 47.04 18.648 47.136 18.6 47.28C18.696 47.184 18.744 47.04 18.792 46.944V46.896ZM6.16801 48.288C5.97601 48.576 5.88001 48.96 5.83201 49.296C6.07201 48.96 6.16801 48.624 6.16801 48.288ZM17.304 49.824C17.352 49.824 17.352 49.776 17.352 49.728L17.304 49.824Z" fill="white"/>
<path d="M63.0011 25.296C62.9531 24.48 62.8571 23.712 62.5691 22.944C62.2811 22.224 61.8971 21.552 61.5611 20.832C61.2731 20.208 60.8891 19.728 60.3131 19.392C59.8331 19.152 59.6411 18.72 59.6411 18.192C59.6411 18.048 59.6891 17.904 59.7371 17.76H59.4971C59.4011 17.664 59.4011 17.568 59.4491 17.52L59.9771 16.848C60.1211 16.656 60.2651 16.512 60.4091 16.272C60.5051 16.128 60.4091 15.936 60.1691 15.936C60.0251 15.888 59.8811 15.936 59.7371 15.936C59.7851 15.6 59.9291 15.36 60.1211 15.12C60.2651 14.88 60.2651 14.64 60.1211 14.448C59.9291 14.16 59.6891 13.968 59.3531 14.016L58.9211 14.16C58.7291 14.208 58.4891 14.4 58.2491 14.208C58.4411 14.064 58.5851 13.968 58.7291 13.824C58.8251 13.776 58.7771 13.728 58.6811 13.68L58.2011 13.824L57.7691 13.968C57.6731 13.968 57.5771 13.968 57.5291 13.92C57.4331 13.824 57.5291 13.728 57.6251 13.68L58.4891 13.248C58.8251 13.104 58.8731 12.816 58.6331 12.576C58.0571 12.096 57.3851 11.904 56.6651 12.192C56.0891 12.432 55.4651 12.768 54.9371 13.104C54.1691 13.632 53.5451 14.256 52.8731 14.784C52.4411 15.12 52.1051 15.552 51.7211 15.936C50.7611 16.944 50.0411 18.096 49.1771 19.152C48.7931 19.632 48.4571 20.16 48.2651 20.736C48.2171 20.928 48.0731 21.12 47.9771 21.312L46.1051 24.096C45.9131 24.432 45.7691 24.72 45.6251 25.056C45.2891 25.824 45.0011 26.592 44.5691 27.312C44.0411 28.128 43.6091 28.992 43.2731 29.904C43.0331 30.72 42.6491 31.392 42.2651 32.16C42.1691 32.4 41.9771 32.64 41.9291 32.88C41.6891 33.6 41.3051 34.176 40.9691 34.848C40.7771 35.376 40.3451 35.76 39.8651 36L38.7611 36.432C38.4251 36.576 38.0891 36.72 37.8011 36.912C37.2731 37.344 36.7451 37.776 36.2171 38.16C35.6411 38.592 35.5451 39.168 35.6411 39.792C35.6411 39.936 35.7851 39.984 35.9291 39.936C36.0251 39.888 36.1211 39.84 36.2171 39.744L37.9451 38.736C38.2811 38.544 38.6171 38.4 38.9531 38.256C39.0011 38.208 39.1451 38.256 39.1451 38.352C39.1931 38.4 39.0971 38.544 39.0491 38.592C38.9051 38.688 38.7611 38.784 38.6171 38.832C38.0891 39.12 37.5611 39.408 37.0811 39.696C36.7931 39.84 36.5051 40.032 36.2171 40.416C36.7931 40.272 37.1291 39.984 37.5131 39.792C37.8491 39.6 38.1371 39.216 38.6171 39.312C38.5691 39.84 37.9931 39.792 37.7051 40.032C37.6091 40.128 37.4651 40.176 37.3211 40.272L36.4091 40.896C36.2171 41.088 36.1211 41.328 36.2171 41.664C36.3131 41.904 36.5531 42.096 36.8411 42.144H37.2731C37.5611 42.096 37.6091 42.192 37.5131 42.432C37.4171 42.672 37.3691 42.864 37.3691 43.104C37.4651 43.536 37.3211 43.968 37.2251 44.4C37.0811 44.736 36.9851 45.072 36.8891 45.408C36.7451 46.032 36.6971 46.608 36.8891 47.232C37.1291 47.856 37.4651 48.288 38.2331 48.192C38.4251 48.144 38.5211 48.24 38.5691 48.432C38.5691 48.576 38.6171 48.768 38.6171 48.96C38.7131 49.536 39.0491 49.872 39.5291 50.16C39.6731 50.256 39.8651 50.256 40.0091 50.112C40.1051 50.064 40.1531 49.968 40.2011 49.92C40.4891 49.68 40.5371 49.68 40.7291 50.016C40.7771 50.064 40.7771 50.064 40.7771 50.112C41.0171 50.544 41.2091 50.592 41.5451 50.256C41.7371 50.112 41.9291 49.872 42.2171 49.872C42.5531 49.872 42.6971 49.728 42.7451 49.44C42.8891 48.768 43.1771 48.144 43.4651 47.472L44.6171 44.928L46.4891 40.944C46.5371 40.8 46.6331 40.704 46.7291 40.56C47.0651 40.032 47.5931 39.648 48.1211 39.264C48.2651 39.168 48.3611 39.312 48.4091 39.456L51.4331 38.736C51.6731 38.688 51.9131 38.592 52.1531 38.592C52.2971 38.544 52.4411 38.64 52.4891 38.832V39.456C52.4411 39.792 52.3451 40.128 52.2491 40.416C52.0571 41.184 51.9611 42 51.6251 42.72C51.0491 43.92 50.8571 45.264 50.3771 46.512C50.1851 47.04 50.3291 47.568 50.5691 48.096C50.7131 48.336 50.9531 48.384 51.1931 48.24L51.6251 47.904C51.6731 47.904 51.7211 47.904 51.7691 47.952C51.8171 47.952 51.8171 48.048 51.8171 48.096C51.7211 48.336 51.6251 48.576 51.5291 48.912C51.8171 48.672 52.0091 48.528 52.1531 48.384H52.2491C52.2971 48.432 52.3451 48.48 52.3451 48.528L52.1531 49.008C51.9611 49.536 52.0571 49.92 52.4411 50.256C52.7771 50.544 53.1611 50.544 53.4971 50.208C53.6411 50.112 53.7371 49.968 53.8811 49.824C54.1211 49.536 54.4091 49.248 54.6971 48.96C54.7931 48.864 54.9371 48.72 55.0811 48.864C55.1771 48.96 55.0811 49.104 54.9851 49.2L54.2651 50.352C54.1691 50.496 54.0731 50.688 54.2651 50.832C54.4091 50.928 54.5531 50.88 54.6971 50.784C54.8891 50.688 55.0331 50.544 55.1771 50.4C55.4171 50.064 55.6571 49.776 55.8491 49.44C56.6171 48.192 57.1931 46.896 57.7211 45.552C58.3931 43.92 59.0171 42.192 59.6411 40.56C59.6411 40.512 59.7371 40.512 59.8331 40.464C59.7851 41.088 59.5931 41.712 59.3051 42.288C58.8251 43.488 58.2971 44.688 57.9611 45.936C57.8651 46.272 57.7691 46.512 57.6251 46.8C57.1931 47.76 56.7131 48.672 56.2811 49.584C56.1371 49.824 56.0411 50.112 55.9451 50.352C56.1851 50.112 56.4251 49.872 56.6171 49.488C57.2411 48.336 57.8651 47.136 58.2971 45.84C58.3931 45.456 58.5851 45.072 58.7291 44.688C59.3051 43.296 59.8331 41.952 60.1691 40.56C60.2171 40.32 60.3131 40.128 60.4091 39.936C60.7931 38.976 61.1291 38.016 61.3691 37.008L62.3771 33.792C62.7131 32.544 63.1451 31.248 63.0011 29.904C63.0011 29.76 63.0491 29.664 63.0971 29.52C63.0971 29.28 63.1451 29.04 63.1451 28.8L63.0011 25.296ZM56.2331 15.408C56.0411 15.552 55.8971 15.648 55.7051 15.744C55.8971 15.6 55.9931 15.504 56.2331 15.408ZM56.2331 22.704C56.1851 22.704 56.1371 22.752 56.0891 22.752V22.608C56.0891 22.608 56.1371 22.56 56.1851 22.56C56.2331 22.56 56.2811 22.608 56.2331 22.704ZM56.5691 23.76C56.5211 23.856 56.5211 24.048 56.4731 24.24C56.1371 25.44 55.8491 26.64 55.5131 27.84C55.4651 28.176 55.3691 28.512 55.3211 28.8C55.2251 29.904 54.9851 30.96 54.5531 32.016C54.4571 32.352 54.3611 32.784 54.2171 33.12C54.0251 33.696 53.8331 33.84 53.3051 33.696C52.7291 33.504 52.1531 33.456 51.5771 33.456L51.0491 33.36C50.9051 33.264 50.8091 33.168 50.8571 32.976C50.8571 32.88 50.9051 32.784 50.9051 32.736C51.5291 31.536 52.0091 30.288 52.8251 29.184C53.0171 28.992 53.1611 28.704 53.2571 28.416C53.5931 27.792 53.9291 27.168 54.3131 26.592C54.6491 26.064 54.9851 25.488 55.2731 24.96C55.3211 24.864 55.3691 24.72 55.3211 24.72C55.1771 24.576 55.1291 24.72 55.0331 24.816C54.7931 25.152 54.5531 25.44 54.3611 25.824C53.8811 26.64 53.4491 27.504 52.9691 28.368C52.7771 28.752 52.5851 29.088 52.2971 29.472C51.8171 30.144 51.3851 30.864 51.0491 31.68C50.8571 32.112 50.6171 32.544 50.3771 32.976C50.3291 33.072 50.1851 33.216 50.0411 33.264C49.9931 33.264 49.9451 33.216 49.8971 33.216C49.8491 33.216 49.8491 33.168 49.8491 33.12C49.8971 33.024 49.8971 32.88 49.9451 32.784C50.8091 31.296 51.4811 29.664 52.5371 28.176C53.2091 27.216 53.7851 26.16 54.3611 25.152C54.5531 24.864 54.7451 24.528 54.9851 24.24C55.1771 24 55.3691 23.808 55.7531 23.856C56.0411 23.904 56.0411 23.616 56.1851 23.472C56.2811 23.376 56.3291 23.328 56.4251 23.376C56.4731 23.424 56.5211 23.52 56.5691 23.616V23.76ZM49.7051 23.616L49.5131 23.952C49.5611 23.856 49.6091 23.712 49.7051 23.568V23.616ZM47.7371 27.264C47.5451 27.36 47.7851 26.832 48.2171 26.352C48.1211 26.688 48.0731 27.072 47.7371 27.264ZM46.7291 29.424C46.6811 29.472 46.6331 29.52 46.5851 29.616C46.5851 29.52 46.6331 29.472 46.6331 29.376C46.6811 29.328 46.6811 29.28 46.7291 29.28V29.424ZM45.6731 31.248C45.6251 31.44 45.6731 31.584 45.5291 31.728C45.3851 31.536 45.6251 31.44 45.6731 31.248ZM62.0891 33.072C62.0891 33.168 62.0891 33.264 62.0411 33.312C62.0411 33.36 61.9931 33.408 61.9451 33.456V33.312L62.0891 33.072C62.1371 32.928 62.1371 32.688 62.2811 32.592C62.4251 32.496 62.3291 32.784 62.0891 33.072ZM60.1211 39.456C60.0731 39.504 59.9771 39.552 59.9771 39.504C59.9291 39.504 59.8811 39.408 59.8811 39.36C60.1211 38.736 60.4091 38.064 60.6491 37.392C60.6971 37.344 60.7451 37.296 60.7931 37.296C60.8411 37.296 60.8891 37.344 60.8891 37.392C60.7451 38.112 60.5051 38.832 60.1211 39.456ZM51.3851 37.584C50.3771 38.016 49.3211 38.208 48.3611 38.448C48.2171 38.4 48.1211 38.4 48.1211 38.256C48.1211 38.208 48.1211 38.16 48.1691 38.112C48.3131 38.064 48.4571 37.92 48.6011 37.92C49.4651 37.728 50.3771 37.536 51.2411 37.392C51.3371 37.344 51.4331 37.344 51.4811 37.488C51.4811 37.536 51.4331 37.584 51.3851 37.584ZM46.1531 40.992C46.0091 41.376 45.8651 41.712 45.7211 42L43.4171 46.848C43.1291 47.424 42.9371 48 42.6971 48.576C42.6491 48.624 42.6011 48.768 42.5051 48.672C42.4571 48.672 42.4571 48.528 42.4571 48.432L42.7451 47.472C43.2731 46.08 43.9451 44.784 44.5691 43.44L45.7211 41.04C45.7691 40.896 45.8651 40.752 46.0091 40.704C46.0571 40.656 46.1051 40.704 46.1531 40.752C46.1531 40.848 46.2011 40.944 46.1531 40.992ZM40.2491 43.344C40.2491 43.392 40.2011 43.392 40.2011 43.392C40.2011 43.344 40.1531 43.344 40.2011 43.296C40.2011 43.248 40.2491 43.248 40.2971 43.296C40.2971 43.296 40.2971 43.344 40.2491 43.344Z" fill="white"/>
<path d="M82.6305 45.696C82.5825 45.648 82.4385 45.648 82.3905 45.648C82.1505 45.696 81.8625 45.984 81.7185 45.744C81.4785 45.456 81.8625 45.312 81.9585 45.072C81.9585 45.024 82.0065 45.024 82.0065 44.976C82.1505 44.736 82.1025 44.544 81.8625 44.352C81.7185 44.208 81.5265 44.064 81.3825 43.968C80.9505 43.68 80.4705 43.44 80.0865 43.104C79.6545 42.816 79.2225 42.624 78.7425 42.576C78.2625 42.576 77.8305 42.528 77.3985 42.624C76.0065 42.816 74.6625 42.96 73.3185 43.248C73.1265 43.296 72.9825 43.296 72.7905 43.296C72.5025 43.296 72.2625 43.056 72.3105 42.768C72.3585 42.576 72.4065 42.432 72.5025 42.24C72.6465 41.808 72.8385 41.424 73.0305 40.992C73.2225 40.608 73.3665 40.224 73.3665 39.792C72.8385 40.56 72.5025 41.424 72.1185 42.288C72.0225 42.624 71.9265 42.96 71.6865 43.2L71.4945 43.248C71.3985 43.2 71.3505 43.104 71.3985 43.056C71.4945 42.48 71.6865 41.904 71.9265 41.424C72.7905 39.648 73.5585 37.872 74.2305 36.048C74.3265 35.808 74.4705 35.568 74.6145 35.328C74.8545 34.896 75.0465 34.464 75.1425 33.984C75.1425 33.888 75.1425 33.792 75.1905 33.744C75.8145 32.4 76.2465 31.008 76.9185 29.712C77.0625 29.52 77.2065 29.328 77.3025 29.088C77.3505 29.04 77.4945 28.992 77.5425 28.992C77.6865 29.04 77.6865 29.184 77.6385 29.28C77.5425 29.52 77.3985 29.712 77.3025 29.952C76.8705 30.864 76.4865 31.824 76.2945 32.832C76.3905 32.64 76.5345 32.496 76.5825 32.304C77.1585 31.008 77.7345 29.712 78.2625 28.464C78.5025 27.936 78.6945 27.408 78.8865 26.832C78.5025 27.12 78.3585 27.504 78.1185 27.84C78.0705 27.888 77.9265 27.984 77.8785 27.984C77.7345 27.888 77.7825 27.744 77.8305 27.648C78.2145 26.928 78.5505 26.112 79.1265 25.488C79.3665 25.152 79.6065 24.864 79.7505 24.48C79.7505 24.384 79.7985 24.288 79.6545 24.24C79.6065 24.24 79.5585 24.336 79.5105 24.336C79.4625 24.384 79.3665 24.48 79.2705 24.384C79.2705 24.288 79.2705 24.192 79.3185 24.144C79.5585 23.76 79.7985 23.328 80.0385 22.992C80.2785 22.704 80.4705 22.368 80.4225 21.984C80.3745 21.744 80.4225 21.504 80.5185 21.264C80.7585 20.496 80.9025 19.68 81.2385 18.912C81.3825 18.624 81.4305 18.24 81.5265 17.856C81.5745 17.616 81.5745 17.616 81.2385 17.616C80.9985 17.568 80.9025 17.52 80.9505 17.28C80.9505 17.184 80.9505 17.04 80.9985 16.944C81.2865 16.08 80.9985 15.408 80.3265 14.832C80.0865 14.592 79.8465 14.4 79.6545 14.112C78.7905 13.056 77.8785 13.008 77.0145 13.824C76.9185 13.872 76.8705 13.968 76.7745 14.064C76.3425 14.64 75.9105 15.168 75.6225 15.792C75.3825 16.272 75.0945 16.656 74.7105 16.944C74.4225 17.184 74.1345 17.472 73.8945 17.808C73.5585 18.384 73.1745 18.96 72.8385 19.584C72.3105 20.496 71.7345 21.36 71.3025 22.272C70.6305 23.712 70.1985 25.248 69.4305 26.64C69.2865 26.832 69.2385 27.072 69.1905 27.312C69.0465 27.792 68.8545 28.224 68.5665 28.656C68.2785 29.088 68.0865 29.568 67.8945 30.048C67.4625 30.912 67.3185 31.92 66.7905 32.688C66.4545 33.792 65.9745 34.8 65.5425 35.856C65.2545 36.576 64.9665 37.248 64.6305 37.92C64.1985 38.784 63.7185 39.6 63.5265 40.512C63.4785 40.8 63.3345 41.04 63.2385 41.28C63.1905 41.472 63.0945 41.664 63.0465 41.904C62.8065 42.816 62.6145 43.728 62.4225 44.64C62.3265 45.024 62.2305 45.408 62.1825 45.792C62.0865 46.608 62.4705 47.184 62.9025 47.808C63.3345 47.904 63.5745 48.432 64.1025 48.384C64.2465 48.336 64.2945 48.48 64.2945 48.624C64.1985 49.104 64.4385 49.44 64.7745 49.728C65.0625 50.016 65.3505 50.4 65.7825 50.448C66.2145 50.496 66.5985 50.64 66.9825 50.832C67.6065 51.12 68.2305 51.072 68.8545 50.928C70.1025 50.688 71.3025 50.208 72.5025 49.728C74.2785 49.104 76.1505 48.624 77.9745 48.048C79.1265 47.664 80.2305 47.376 81.3825 47.04C82.0065 46.896 82.3905 46.512 82.6305 45.984C82.6785 45.888 82.6785 45.744 82.6305 45.696ZM75.5745 34.656C76.0065 34.128 76.1025 33.456 76.2945 32.832C75.8145 33.36 75.5265 33.936 75.5745 34.656ZM69.9105 33.696C69.8145 33.84 69.7185 34.032 69.5745 34.224C69.6225 33.984 69.6225 33.792 69.7185 33.6C69.7185 33.456 69.9105 33.312 69.9585 33.408C69.9585 33.504 69.9585 33.6 69.9105 33.696ZM74.1825 38.4C74.4705 37.632 74.7585 36.912 75.1425 36.24C75.3825 35.712 75.5265 35.232 75.5745 34.656C74.5665 36.24 73.8945 38.016 73.3665 39.792C73.8465 39.456 74.0385 38.928 74.1825 38.4ZM68.9985 35.712C68.9025 35.712 68.9505 35.616 68.9505 35.52C68.9985 35.232 69.1425 35.04 69.3825 34.896C69.2865 35.184 69.2385 35.376 69.1425 35.616C69.1425 35.664 69.0465 35.712 68.9985 35.712ZM68.0865 37.776C68.1345 37.632 68.1825 37.584 68.2305 37.488L68.0865 37.776ZM66.0705 42.624C66.1665 42.336 66.2145 42 66.5505 41.664C66.4545 42.192 66.2625 42.432 66.0705 42.624ZM65.5425 44.16C65.4945 44.16 65.4945 44.16 65.4945 44.112C65.4465 43.968 65.5905 43.728 65.6865 43.776C65.7345 43.776 65.7345 43.824 65.7345 43.872C65.7825 44.016 65.6385 44.208 65.5425 44.16Z" fill="white"/>
<path d="M122.422 18.288C122.086 18.288 121.846 18.192 121.798 17.856C121.798 17.568 121.75 17.328 121.75 17.04C121.702 16.656 121.606 16.32 121.414 15.984C121.222 15.744 120.982 15.552 120.646 15.552C120.502 15.6 120.406 15.6 120.262 15.6C119.926 15.648 119.83 15.552 119.878 15.216C119.878 15.024 119.878 14.832 119.926 14.688C119.926 14.496 119.926 14.352 119.83 14.208C119.398 13.536 118.438 13.44 117.862 13.968L117.574 14.352C117.094 14.928 116.47 15.312 115.702 15.36C115.126 15.36 114.598 15.648 114.118 15.984C113.59 16.368 113.158 16.848 112.822 17.376L112.39 17.952C110.806 19.872 109.27 21.744 107.974 23.856L107.398 24.576C106.87 25.296 106.294 26.016 105.814 26.784C105.286 27.6 104.806 28.464 104.086 29.136C103.942 29.328 103.798 29.568 103.51 29.568C103.366 29.568 103.318 29.28 103.366 28.8C103.366 28.8 103.366 28.752 103.414 28.752C103.846 27.072 103.846 25.344 104.23 23.712C104.278 23.472 104.278 23.184 104.182 22.992C104.038 22.56 104.038 22.224 104.182 21.84C104.23 21.744 104.23 21.6 104.278 21.456C104.326 20.16 104.374 18.864 104.326 17.568C104.326 17.184 104.278 16.752 103.99 16.464C103.846 16.224 103.846 15.984 103.75 15.744C103.558 14.832 103.414 13.92 102.55 13.296C102.55 13.248 102.502 13.2 102.454 13.152C102.214 12.672 101.83 12.336 101.302 12.144C101.014 12.048 100.726 11.856 100.63 11.52C100.534 11.232 100.342 11.136 100.102 10.992C99.6221 10.752 99.1421 10.704 98.6141 10.944C98.2301 11.136 97.8941 11.376 97.6541 11.712C97.1261 12.384 96.6461 13.008 95.9741 13.536C95.8301 13.632 95.6861 13.872 95.5901 14.016C95.2061 14.592 94.9181 15.168 94.4861 15.696C93.9581 16.368 93.5261 17.136 93.1901 17.904C92.6621 19.056 92.1341 20.208 91.5581 21.36C91.0781 22.368 90.5501 23.376 90.2141 24.432C90.0221 25.008 89.7821 25.584 89.5421 26.112C89.4461 26.4 89.3021 26.64 89.2061 26.88C88.8221 28.128 88.4381 29.376 87.9101 30.576C87.4301 31.68 86.9981 32.832 86.5661 33.984C86.3261 34.608 86.0381 35.28 85.8461 35.952C85.4621 37.44 84.9341 38.88 84.4541 40.368C84.0221 41.52 83.6381 42.72 83.3021 43.92C83.0621 44.88 82.9181 45.888 82.7261 46.848C82.5821 47.52 82.7261 48.096 83.0621 48.624C83.2541 48.96 83.5901 49.008 83.8781 49.104C84.0701 49.152 84.1181 48.96 84.2141 48.864C84.3101 48.768 84.4061 48.816 84.4061 48.912C84.4541 49.056 84.4541 49.248 84.5021 49.392C84.5021 49.68 84.6941 49.968 84.8861 50.16C85.2221 50.448 85.5101 50.448 85.7501 50.064C85.8941 49.872 86.0381 49.632 86.2301 49.44C86.2301 49.392 86.3261 49.392 86.3741 49.392C86.4221 49.392 86.4701 49.488 86.4701 49.536C86.4701 49.728 86.3741 49.92 86.3741 50.16C86.3261 50.208 86.3741 50.352 86.4221 50.4H86.6621C86.9981 50.208 87.1901 49.92 87.2861 49.632C87.5261 48.912 87.7181 48.24 88.0061 47.52C88.6301 45.792 89.2541 44.064 89.9741 42.336C91.2221 39.168 92.5181 36.048 93.8621 32.88C94.1021 32.256 94.3901 31.68 94.6781 31.056C94.8701 30.72 95.0621 30.384 95.3981 30.144C95.2541 31.056 94.7741 31.872 94.4381 32.736C94.1501 33.312 93.8621 33.888 93.7661 34.512C94.0541 34.128 94.2461 33.696 94.3901 33.264C94.5821 32.88 94.7741 32.592 95.2061 32.496C95.3021 32.928 95.3021 33.312 95.2061 33.744L95.0621 34.56C94.8701 36.432 94.5341 38.304 94.4381 40.176C94.4381 40.32 94.4381 40.464 94.3901 40.608C94.1981 41.424 94.1501 42.24 94.0061 43.056C93.7661 44.448 93.9101 45.84 93.7661 47.232C93.7181 47.76 93.8621 48.24 94.1501 48.672C94.5341 49.2 94.7741 49.248 95.3501 48.864C95.4941 48.768 95.5901 48.816 95.6381 48.96L95.7821 49.68C95.7821 49.92 95.8781 50.112 96.0701 50.304C96.4061 50.736 96.8381 50.736 97.1741 50.256C97.3181 50.112 97.4141 49.92 97.5101 49.728C97.6061 49.584 97.7501 49.488 97.8941 49.584C98.0381 49.632 98.0381 49.776 97.9901 49.92L97.8461 50.352C97.7981 50.448 97.7981 50.592 97.8941 50.688C98.0381 50.784 98.1821 50.736 98.2781 50.64C98.4221 50.496 98.5181 50.352 98.6141 50.208C98.7581 50.016 98.8541 49.776 98.9501 49.584C99.0461 49.44 99.0941 49.248 99.2861 49.344C99.4301 49.392 99.3821 49.584 99.4301 49.728L100.678 47.28C100.582 47.328 100.486 47.568 100.294 47.472C100.198 47.376 100.294 47.232 100.294 47.136L100.726 46.224C101.734 44.304 102.694 42.432 103.702 40.56C105.622 37.152 107.686 33.792 109.75 30.528C110.086 30 110.374 29.52 110.71 29.04C110.758 28.944 110.854 28.752 111.046 28.8C111.238 28.896 111.094 29.04 111.046 29.184C110.998 29.28 110.95 29.376 110.902 29.424C110.71 29.76 110.566 30.144 110.374 30.48L110.662 30.288C110.95 30.192 111.19 30.384 111.142 30.624C111.094 30.864 111.046 31.104 110.95 31.344C110.662 32.016 110.47 32.736 110.326 33.408C109.846 35.616 109.606 37.872 108.982 40.032V40.224C108.79 41.568 108.646 42.912 108.598 44.304C108.598 44.928 108.646 45.552 108.982 46.128C109.126 46.416 109.318 46.704 109.654 46.848C110.086 46.992 110.374 47.328 110.566 47.664C110.71 47.904 110.902 48.144 111.094 48.336C111.334 48.528 111.574 48.672 111.91 48.528C112.198 48.432 112.438 48.384 112.678 48.624C112.918 48.768 113.11 48.72 113.35 48.528C113.83 48.096 114.166 47.616 114.262 46.944C114.502 45.408 114.79 43.872 115.174 42.384C115.222 42.288 115.27 42.144 115.126 42.096C114.838 42.432 114.79 42.864 114.646 43.248C114.598 43.344 114.55 43.344 114.502 43.296C114.454 43.296 114.454 43.248 114.454 43.248C114.454 43.056 114.502 42.864 114.55 42.72C114.79 41.76 114.982 40.8 115.27 39.888C115.798 37.872 116.422 35.856 116.998 33.84C117.046 33.6 117.142 33.312 117.238 33.072L119.11 28.416L119.974 26.304C120.022 26.208 120.07 26.016 120.214 26.112C120.358 26.16 120.262 26.352 120.214 26.448C119.302 28.512 118.582 30.624 117.814 32.736C117.238 34.464 116.71 36.192 116.134 37.92C115.894 38.736 115.654 39.504 115.462 40.32C115.414 40.512 115.318 40.704 115.366 40.944L115.414 40.992H115.51L115.654 40.656L116.758 36.96C117.046 36 117.286 34.992 117.622 34.032C118.342 32.16 119.11 30.288 119.782 28.416C119.878 28.032 120.07 27.744 120.166 27.408C120.55 26.448 120.982 25.536 121.126 24.48C121.318 24.144 121.462 23.76 121.558 23.376C121.606 23.184 121.51 23.04 121.318 22.992C121.414 22.608 121.51 22.272 121.702 21.888C121.798 21.696 121.942 21.456 121.942 21.216C121.942 20.64 122.134 20.112 122.326 19.584C122.47 19.152 122.518 18.72 122.422 18.24V18.288ZM115.99 16.272L116.182 16.08C116.134 16.128 116.086 16.176 116.038 16.272H115.99ZM96.1661 18.096C96.1661 18.048 96.1181 18.048 96.1181 18C96.1661 17.808 96.3581 17.664 96.5021 17.52C96.4061 17.712 96.3101 17.904 96.2621 18.096H96.1661ZM121.606 19.536C121.558 19.536 121.51 19.536 121.51 19.488C121.51 19.488 121.51 19.44 121.462 19.44C121.51 19.2 121.606 19.008 121.75 18.912C121.798 18.864 121.798 18.864 121.846 18.864L121.894 18.912C121.894 19.152 121.75 19.344 121.606 19.536ZM94.8701 20.544C95.0621 19.824 95.1581 19.632 95.6861 19.008C95.5421 19.632 95.4461 19.872 94.8701 20.544ZM94.1981 21.888C94.3421 21.84 94.2461 22.08 93.9101 22.464C94.0061 22.272 94.0061 22.032 94.1981 21.888ZM103.654 24.192C103.654 24.144 103.75 24.144 103.75 24.096L103.846 24.24L103.75 24.48L103.702 24.528L103.606 24.432C103.606 24.336 103.606 24.24 103.654 24.192ZM120.982 24.672C120.886 24.768 120.838 24.96 120.646 24.912C120.55 24.912 120.55 24.768 120.598 24.72C120.742 24.384 120.79 24.384 121.078 24.48L120.982 24.672ZM109.798 24.672L109.942 24.432V24.528L109.798 24.672ZM109.702 24.768L109.75 24.72C109.702 24.768 109.702 24.768 109.702 24.768ZM108.598 26.4H108.646C108.646 26.4 108.646 26.448 108.598 26.496V26.4ZM103.318 26.784C103.318 26.736 103.414 26.688 103.462 26.736C103.51 26.736 103.51 26.832 103.51 26.88C103.462 27.168 103.366 27.504 103.126 27.744C103.078 27.36 103.126 27.072 103.318 26.784ZM95.0141 27.552C95.1101 27.408 95.1101 27.216 95.3021 27.168C95.4461 27.12 95.3021 27.312 95.0141 27.552ZM91.0781 29.424C91.0781 29.376 91.1261 29.328 91.1741 29.28C91.1741 29.328 91.1741 29.376 91.1261 29.472C91.1261 29.52 91.0781 29.52 91.0301 29.568C91.0301 29.52 91.0301 29.472 91.0781 29.424ZM92.9501 32.592C92.9501 31.968 93.2861 30.864 93.6701 30.144C93.8141 29.904 93.9101 29.664 94.2941 29.472C93.9581 30.576 93.4301 31.536 92.9501 32.592ZM102.502 30.672L102.454 30.624C102.502 30.48 102.502 30.336 102.55 30.192C102.55 30.144 102.646 30.096 102.694 30.144L102.79 30.288L102.646 30.672H102.502ZM110.374 30.48C110.182 30.624 110.134 30.768 110.038 30.96L110.374 30.48ZM109.366 31.968C109.27 32.064 109.222 32.208 109.126 32.304C109.126 32.4 109.078 32.448 109.078 32.496L109.222 32.352C109.27 32.208 109.51 32.16 109.366 31.968ZM103.606 33.936C103.702 33.696 103.798 33.552 103.99 33.408C103.894 33.6 103.798 33.792 103.606 33.936ZM108.31 33.744C108.262 33.84 108.214 33.888 108.166 33.936L108.31 33.84V33.744ZM108.166 33.936C108.118 34.08 108.022 34.176 107.974 34.32C108.07 34.224 108.118 34.08 108.166 33.936ZM92.2301 34.128C92.2301 34.176 92.1341 34.272 92.1341 34.32C92.1341 34.224 92.1341 34.176 92.1821 34.08C92.1821 34.032 92.2301 33.984 92.2781 33.984C92.2301 34.032 92.2781 34.08 92.2301 34.128ZM103.222 34.512C103.318 34.272 103.414 34.128 103.606 33.984C103.51 34.224 103.414 34.368 103.222 34.512ZM107.974 34.32C107.878 34.512 107.734 34.656 107.638 34.848C107.734 34.704 107.878 34.512 107.974 34.32ZM93.7661 34.512C93.1901 35.472 92.8541 36.528 92.4701 37.584C93.0941 36.624 93.4781 35.568 93.7661 34.512ZM107.638 34.848C107.542 34.992 107.494 35.088 107.446 35.232C107.494 35.136 107.542 34.992 107.638 34.848ZM107.446 35.232C107.302 35.424 107.206 35.616 107.062 35.76V35.808L107.446 35.232ZM89.6861 40.608C89.6861 40.656 89.5901 40.656 89.5421 40.704L89.4941 40.512C89.6381 40.176 89.7341 39.792 89.8781 39.408C90.4061 38.112 90.8861 36.816 91.5581 35.616C91.5101 35.856 91.5101 36.144 91.4141 36.384L89.6861 40.608ZM107.062 35.808C106.678 36.192 106.39 36.672 106.15 37.248C106.534 36.816 106.87 36.384 107.062 35.808ZM105.766 37.776C105.862 37.728 105.91 37.68 106.006 37.584L106.15 37.248C106.102 37.344 106.054 37.488 105.958 37.584C105.91 37.68 105.862 37.728 105.766 37.776ZM92.4701 37.584C92.4221 37.728 92.3261 37.872 92.2781 37.968C92.3741 37.872 92.4221 37.728 92.4701 37.584ZM105.43 38.688C105.574 38.448 105.67 38.16 105.766 37.872C105.478 38.256 105.238 38.64 104.998 38.976C103.702 41.232 102.55 43.584 101.35 45.888C101.206 46.176 101.11 46.416 101.062 46.704C101.83 45.552 102.454 44.352 103.078 43.104C103.798 41.616 104.614 40.176 105.43 38.688ZM92.2301 38.112C92.2301 38.064 92.2781 38.016 92.2781 37.968L92.2301 38.112ZM92.2301 38.112C92.1821 38.16 92.1341 38.256 92.0861 38.352H92.1341L92.2301 38.112ZM89.1101 45.6C88.7741 46.368 88.4381 47.232 88.2941 48.096C88.6301 47.616 88.8221 47.04 89.0141 46.512C89.4461 45.312 89.9261 44.064 90.4061 42.864L91.9901 38.88L92.1341 38.352C91.8461 38.736 91.6061 39.168 91.4621 39.648C90.6461 41.616 89.8781 43.584 89.1101 45.6ZM89.0141 42.384C88.7261 43.296 88.3901 44.16 87.9581 45.072C87.8141 44.832 87.9101 44.64 87.9581 44.496L88.8221 42.336C88.8221 42.24 88.8701 42.192 88.9181 42.192C89.0621 42.192 89.0141 42.288 89.0141 42.384ZM101.254 43.248L101.206 43.296V43.248C101.302 43.152 101.35 43.008 101.398 42.864C101.494 42.768 101.542 42.672 101.59 42.528C101.542 42.672 101.494 42.768 101.398 42.912L101.254 43.248ZM114.166 45.072C114.022 44.928 114.166 44.496 114.358 44.352C114.358 44.352 114.406 44.352 114.406 44.4C114.55 44.544 114.454 44.976 114.214 45.072H114.166ZM100.87 46.896L101.062 46.752V46.704L100.87 46.896ZM100.87 46.896C100.822 47.04 100.726 47.136 100.678 47.28C100.774 47.184 100.822 47.04 100.87 46.944V46.896ZM88.2461 48.288C88.0541 48.576 87.9581 48.96 87.9101 49.296C88.1501 48.96 88.2461 48.624 88.2461 48.288ZM99.3821 49.824C99.4301 49.824 99.4301 49.776 99.4301 49.728L99.3821 49.824Z" fill="white"/>
<path d="M151.127 5.952C151.079 5.904 151.079 5.808 151.031 5.808C150.647 5.568 150.551 5.136 150.455 4.752C150.263 3.984 149.783 3.36 149.207 2.88C148.967 2.64 148.727 2.4 148.583 2.112C148.343 1.68 148.007 1.392 147.575 1.152L147.095 0.815999C146.759 0.479998 146.375 0.431998 145.943 0.479998C145.463 0.575999 145.031 0.768 144.695 1.056C144.311 1.344 143.975 1.68 143.639 2.064C143.255 2.448 143.063 2.976 143.015 3.504C143.015 4.224 143.063 4.944 143.399 5.616C143.687 6.288 143.975 6.912 144.359 7.536C144.887 8.4 145.607 9.072 146.663 9.36C146.855 9.408 147.095 9.504 147.287 9.6C147.767 9.84 148.247 9.84 148.775 9.6C149.159 9.456 149.495 9.264 149.831 9.024C149.879 8.928 149.975 8.928 150.023 9.024C150.023 9.072 149.975 9.168 149.927 9.216C150.263 9.072 150.599 8.928 150.551 8.448C150.599 8.112 150.791 7.824 150.983 7.584C151.319 7.056 151.175 6.48 151.127 5.952ZM133.751 7.968C134.327 8.832 134.999 9.6 136.055 9.792C136.295 9.84 136.487 9.936 136.727 10.032C137.207 10.272 137.687 10.272 138.167 10.08C138.551 9.888 138.935 9.696 139.223 9.456C139.319 9.408 139.415 9.36 139.415 9.456C139.415 9.552 139.367 9.6 139.367 9.696C139.703 9.552 139.991 9.36 139.943 8.928C140.039 8.592 140.183 8.304 140.375 8.016C140.759 7.488 140.567 6.912 140.519 6.384C140.519 6.336 140.471 6.288 140.471 6.24C140.039 6 139.991 5.568 139.895 5.184C139.655 4.416 139.175 3.84 138.647 3.312C138.359 3.072 138.167 2.832 137.975 2.544C137.735 2.16 137.399 1.824 137.015 1.584C136.823 1.488 136.631 1.392 136.487 1.248C136.151 0.911998 135.767 0.911998 135.335 0.96C134.903 1.008 134.471 1.2 134.087 1.488C133.751 1.824 133.367 2.16 133.079 2.496C132.695 2.928 132.455 3.408 132.455 3.984C132.407 4.704 132.503 5.424 132.791 6.048C133.079 6.72 133.367 7.392 133.751 7.968ZM146.567 16.272C146.279 15.984 145.943 15.792 145.511 15.84C145.271 15.84 145.079 15.696 144.887 15.504C144.695 15.312 144.503 15.072 144.263 14.88C143.927 14.496 143.543 14.256 143.063 14.064C142.823 13.968 142.535 13.92 142.343 14.112C142.007 14.496 141.623 14.304 141.287 14.16L140.951 13.968C140.711 13.776 140.519 13.92 140.327 14.112C140.327 14.208 140.375 14.352 140.279 14.448C140.231 14.496 140.183 14.544 140.087 14.496C140.039 14.496 140.039 14.4 140.087 14.352C140.183 14.256 140.279 14.208 140.327 14.112C139.847 14.304 139.271 14.496 138.743 14.64C139.079 14.112 139.655 13.92 140.183 13.68C140.375 13.632 140.615 13.584 140.615 13.296C140.567 13.056 140.327 12.96 140.183 12.864C139.991 12.768 139.751 12.72 139.559 12.768C139.271 12.816 138.983 12.816 138.743 12.912C137.591 13.392 136.535 13.92 135.623 14.736C135.383 14.976 135.191 15.168 134.903 15.36C133.511 16.176 132.407 17.328 131.351 18.528C131.063 18.864 130.775 19.2 130.439 19.44C130.151 19.728 129.863 20.016 129.623 20.304C129.239 20.832 128.903 21.36 128.471 21.84C128.183 22.224 127.847 22.608 127.607 22.992C127.031 23.856 126.503 24.72 126.071 25.68L125.783 26.16C125.159 27.024 124.583 27.888 124.247 28.944C124.103 29.28 123.959 29.616 123.767 29.904C123.095 31.056 122.663 32.256 122.231 33.504L122.087 34.224C121.943 35.04 121.847 35.904 121.703 36.72C121.271 39.12 121.655 41.328 122.855 43.44C123.623 44.784 124.583 46.08 125.543 47.328C126.551 48.48 127.847 49.2 129.239 49.728C129.911 49.92 130.535 50.016 131.255 50.064C133.607 50.112 135.527 49.2 137.159 47.472C138.167 46.368 139.079 45.264 139.895 43.968C140.327 43.344 140.807 42.768 141.047 42.048C141.191 41.904 141.287 41.76 141.383 41.616C142.007 40.704 142.487 39.744 142.919 38.736C142.967 38.544 143.015 38.352 143.111 38.256C143.687 37.584 143.927 36.768 144.311 36C144.071 35.904 144.071 35.856 144.359 35.664V35.952L144.503 35.664C144.599 35.136 144.743 34.656 145.127 34.272C145.223 34.176 145.271 34.032 145.271 33.936C145.127 33.504 145.367 33.312 145.655 33.024C145.847 32.88 145.943 32.64 145.991 32.4C146.183 31.824 146.327 31.2 146.759 30.72C146.807 30.672 146.855 30.576 146.855 30.48C146.855 29.856 147.143 29.376 147.431 28.896C147.959 28.032 148.055 27.024 148.343 26.064L148.487 25.44C148.487 25.392 148.439 25.344 148.391 25.344C148.151 25.392 148.055 25.248 148.199 25.104C148.775 24.528 148.919 23.76 149.063 23.04C149.207 22.416 149.207 21.744 149.207 21.12C149.207 20.688 149.111 20.256 148.967 19.872C148.439 18.48 147.671 17.28 146.567 16.272ZM141.191 15.648C141.335 15.6 141.479 15.504 141.527 15.504C141.671 15.456 141.719 15.456 141.767 15.552C141.767 15.552 141.767 15.6 141.719 15.6C141.623 15.792 141.479 15.888 141.287 15.888C141.239 15.888 141.143 15.888 141.143 15.84C141.047 15.792 141.143 15.696 141.191 15.648ZM142.919 18.432C142.727 19.488 142.631 20.496 142.343 21.504C141.959 23.04 141.479 24.528 141.047 26.064L140.759 26.736C140.375 27.696 139.991 28.704 139.751 29.76C139.655 30.336 139.367 30.816 139.079 31.344C138.647 32.16 138.263 32.976 137.927 33.792C137.687 34.416 137.447 34.992 137.063 35.52C137.015 35.568 136.967 35.664 136.919 35.76C136.487 36.912 135.671 37.824 134.951 38.832C134.903 38.928 134.759 39.072 134.711 39.216C134.279 40.128 133.511 40.848 132.791 41.616C132.071 42.384 131.159 42.96 130.247 43.488C129.335 43.968 128.999 43.728 128.855 42.672C128.711 41.76 128.903 40.896 129.191 40.08C129.623 39.024 129.911 37.968 130.199 36.864C130.391 36.336 130.583 35.76 130.727 35.232C130.919 34.656 131.063 34.032 131.207 33.456C131.159 33.264 131.207 33.12 131.351 32.976C131.447 32.784 131.591 32.64 131.687 32.448C131.783 32.352 131.831 32.208 131.735 32.112C131.303 31.728 131.591 31.488 131.879 31.344C132.263 31.104 132.503 30.768 132.647 30.336C133.319 28.8 134.231 27.36 134.999 25.872C135.143 25.584 135.287 25.344 135.383 25.056L135.095 25.2C135.047 25.2 134.951 25.2 134.951 25.152C134.903 25.104 134.951 25.056 134.951 25.008L135.383 24.72V25.056C136.151 24.144 136.775 23.136 137.399 22.176L136.295 23.04C136.439 22.704 136.679 22.416 136.871 22.128L137.975 20.688C138.263 20.304 138.551 19.968 138.983 19.824C139.223 19.728 139.415 19.584 139.367 19.344C139.319 18.96 139.559 18.72 139.751 18.48C140.039 18.144 140.375 17.904 140.663 17.568V17.616C140.855 17.088 141.287 16.704 141.671 16.32C141.767 16.176 141.911 16.128 142.103 16.224C142.631 16.416 142.967 16.896 142.967 17.472C142.967 17.808 142.967 18.144 142.919 18.432ZM141.383 17.04C141.335 17.088 141.287 17.136 141.239 17.232C141.287 17.184 141.335 17.088 141.431 17.04C141.479 16.992 141.527 16.944 141.575 16.848C141.527 16.896 141.479 16.992 141.383 17.04ZM141.047 17.424C141.095 17.328 141.191 17.28 141.239 17.232C141.143 17.28 141.095 17.328 141.047 17.424ZM141.047 17.424C140.903 17.472 140.807 17.52 140.711 17.616C140.903 17.76 140.951 17.568 141.047 17.424ZM134.087 19.248C134.039 19.296 133.991 19.344 133.943 19.44V19.392L134.087 19.248ZM137.399 22.176C137.447 22.032 137.543 21.888 137.591 21.792C137.495 21.888 137.447 22.032 137.399 22.176ZM133.943 27.072C133.895 27.264 133.895 27.504 133.607 27.552C133.463 27.552 133.655 27.312 133.943 27.072ZM140.039 43.344C139.463 44.112 138.935 44.928 138.359 45.696C137.831 46.416 137.207 46.992 136.535 47.616C136.391 47.76 136.199 47.856 136.055 48C135.911 47.808 136.055 47.712 136.103 47.616C137.495 46.128 138.695 44.496 139.943 42.864C140.183 42.576 140.423 42.288 140.663 42.048C140.759 41.904 140.903 41.952 140.999 42.048C140.711 42.432 140.375 42.864 140.039 43.344ZM131.975 45.168C131.927 45.168 131.879 45.12 131.879 45.12C131.831 45.072 131.831 44.976 131.831 44.976L132.071 44.688C132.887 44.064 133.703 43.392 134.423 42.672C134.519 42.624 134.615 42.576 134.663 42.576C134.711 42.576 134.807 42.624 134.807 42.672C134.807 42.72 134.807 42.816 134.759 42.864C134.039 43.68 133.319 44.544 132.263 45.072C132.167 45.12 132.071 45.168 131.975 45.168ZM132.839 45.504C132.839 45.504 132.791 45.504 132.791 45.456L132.743 45.408C132.791 45.312 132.839 45.216 132.887 45.168C133.559 44.592 134.231 44.016 134.855 43.44C134.951 43.344 135.047 43.344 135.095 43.392C135.143 43.44 135.143 43.536 135.095 43.584C134.519 44.304 133.847 44.976 133.031 45.456C132.983 45.504 132.935 45.504 132.839 45.504ZM135.287 47.232C134.951 47.472 134.615 47.76 134.231 47.904C134.135 47.904 134.039 47.904 133.991 47.856C133.943 47.76 133.943 47.664 133.991 47.616C134.135 47.424 134.231 47.28 134.423 47.136C135.527 46.224 136.535 45.216 137.447 44.16C137.543 44.064 137.639 43.968 137.735 43.92H137.831C137.879 43.92 137.879 43.968 137.879 43.968C137.879 44.064 137.879 44.112 137.831 44.16C137.015 45.216 136.343 46.368 135.287 47.232ZM134.951 48.864C134.903 48.864 134.903 48.768 134.903 48.72C134.999 48.576 135.095 48.528 135.239 48.48C135.287 48.48 135.335 48.528 135.335 48.528C135.335 48.72 135.047 48.96 134.951 48.864Z" fill="white"/>
<path d="M188 17.952C187.616 16.848 187.04 15.84 186.416 14.88C185.888 14.064 185.168 13.44 184.352 12.96C183.68 12.528 182.912 12.336 182.096 12.48C180.992 12.672 179.888 12.96 178.928 13.584C177.872 14.256 176.912 15.024 175.904 15.744C175.856 15.792 175.808 15.84 175.76 15.84C174.656 16.752 173.888 18 172.736 18.912C172.64 18.96 172.592 19.104 172.544 19.2C171.536 20.352 170.624 21.552 169.616 22.704C169.232 23.136 168.848 23.616 168.56 24.192C167.888 25.392 167.216 26.592 166.448 27.792C166.304 28.032 166.16 28.272 166.064 28.512C165.536 29.856 164.72 31.056 164.336 32.4L164.192 32.736C163.616 33.696 163.376 34.704 163.136 35.76C162.896 36.576 162.704 37.44 162.56 38.304C162.416 39.264 162.32 40.272 162.224 41.232C162.176 41.328 162.176 41.472 162.176 41.568L162.32 43.584C162.416 45.12 162.896 46.56 163.808 47.808C164.576 48.912 165.488 49.872 166.448 50.832C166.784 51.12 167.12 51.36 167.504 51.552C168.368 52.032 169.328 52.224 170.288 52.416C170.96 52.512 171.584 52.464 172.256 52.368C173.12 52.224 173.84 51.792 174.608 51.408C175.136 51.168 175.568 50.88 176 50.496H175.952C176.144 50.304 176.288 50.064 176.48 49.872C176.672 49.632 176.864 49.392 177.056 49.2C177.2 49.008 177.392 49.008 177.632 49.056C177.776 48.912 177.968 48.816 178.16 48.672C178.064 48.576 178.016 48.48 178.112 48.384L178.688 47.664C179.936 46.464 181.136 45.216 182.192 43.824L183.632 41.856C183.776 41.616 183.872 41.376 183.968 41.088C184.064 40.944 183.92 40.848 183.68 40.896C183.632 40.944 183.536 40.992 183.44 40.992C183.488 40.848 183.536 40.704 183.536 40.56C183.584 40.368 183.584 40.176 183.584 39.936C183.536 39.408 183.104 39.168 182.624 39.456C182.432 39.6 182.192 39.744 182 39.936C182.096 39.552 182.144 39.168 182.24 38.784C182.288 38.64 182.144 38.544 182.048 38.544C181.616 38.496 181.28 38.64 180.992 38.976C180.464 39.648 179.936 40.32 179.36 40.896C178.16 42.096 176.96 43.248 175.664 44.304C174.656 45.168 173.648 46.08 172.496 46.752C171.68 47.184 170.864 47.616 170 47.808C169.328 47.904 169.088 47.76 168.896 47.136C168.896 47.04 168.848 46.944 168.848 46.848C168.8 46.032 168.704 45.216 168.752 44.4C168.8 43.152 168.992 41.904 169.232 40.704C169.328 40.176 169.472 39.648 169.568 39.12C169.664 38.592 169.952 38.112 169.856 37.584C169.712 36.96 170.48 36.768 170.48 36.192C170.48 36.048 170.528 35.952 170.528 35.808C170.576 35.76 170.528 35.664 170.48 35.664C170.144 35.568 170.288 35.376 170.384 35.184C170.528 34.752 170.72 34.32 170.864 33.888C170.912 33.984 171.008 33.984 171.056 33.888C171.344 33.648 171.536 33.36 171.584 32.976C171.536 33.024 171.488 33.072 171.44 33.072C171.344 33.12 171.248 33.12 171.248 32.976C171.248 32.832 171.296 32.688 171.44 32.592C171.44 32.592 171.536 32.544 171.584 32.592C171.632 32.592 171.632 32.688 171.632 32.736C171.632 32.832 171.584 32.928 171.584 32.976C172.112 32.256 172.496 31.488 172.688 30.624C172.976 30.384 173.168 30.048 173.36 29.76C173.504 29.472 173.408 29.376 173.072 29.472C172.976 29.52 172.976 29.376 173.024 29.28C173.168 28.944 173.456 28.656 173.792 28.416V28.8C174.368 28.032 174.848 27.312 175.184 26.448C175.088 26.544 174.896 26.64 174.704 26.784C174.656 26.832 174.608 26.928 174.56 27.024C174.56 27.072 174.512 27.072 174.464 27.024L174.512 26.976C174.56 26.88 174.656 26.832 174.704 26.784C174.848 26.16 175.28 25.632 175.664 25.152L176.72 23.712C177.104 23.136 177.536 22.56 178.016 22.08C178.544 21.552 179.024 21.024 179.504 20.496C179.744 20.208 179.984 19.968 180.368 19.824C180.176 20.256 179.744 20.496 179.6 20.928C179.84 20.784 180.08 20.64 180.272 20.448C180.896 19.872 181.664 19.44 182.192 18.768C181.808 18.912 181.472 19.152 181.136 19.392C180.896 19.584 180.656 19.776 180.368 19.872C181.184 18.72 182.288 18 183.632 17.616C183.68 17.568 183.776 17.616 183.776 17.616C183.872 17.712 183.776 17.808 183.728 17.856C183.488 17.952 183.296 18.096 183.104 18.192L184.352 17.904C184.784 17.808 184.976 18 184.832 18.48C184.736 18.816 184.592 19.2 184.448 19.536C184.112 20.352 183.92 21.216 183.536 21.984C183.056 22.8 182.576 23.616 182.144 24.432C182 24.72 181.856 24.96 181.76 25.248C181.664 25.488 181.616 25.776 181.76 25.968C182 26.4 182.048 26.88 182.096 27.36C182.144 27.744 182.432 27.888 182.816 27.792C183.056 27.696 183.248 27.552 183.536 27.6C183.536 27.6 183.632 27.696 183.584 27.744C183.536 27.84 183.392 27.936 183.296 28.08C183.248 28.128 183.2 28.224 183.296 28.32C183.344 28.368 183.44 28.368 183.536 28.368L183.872 28.224C184.208 28.032 184.544 27.792 184.928 27.696C185.168 27.888 185.312 27.648 185.456 27.504H185.12C185.216 27.216 185.456 27.024 185.696 26.88C185.984 26.784 186.224 26.64 186.368 26.4V26.448C186.512 26.16 186.608 25.92 186.752 25.68C186.896 25.248 187.088 24.864 187.376 24.48C187.904 23.808 188.144 22.992 188.336 22.128C188.672 20.736 188.528 19.296 188 17.952ZM179.984 15.12C180.656 14.4 181.52 14.16 182.432 14.016C182.528 13.968 182.624 14.016 182.624 14.112C182.624 14.16 182.576 14.304 182.48 14.304C181.664 14.592 180.848 14.928 179.984 15.12ZM181.808 15.168C181.568 15.216 181.376 15.264 181.136 15.264C181.328 15.12 181.52 15.024 181.712 14.928C182 14.784 182.288 14.592 182.624 14.688C182.864 14.736 182.432 15.024 181.808 15.168ZM178.688 16.512C178.64 16.512 178.592 16.56 178.544 16.56C178.304 16.896 178.016 17.184 177.632 17.28C177.824 16.944 178.16 16.704 178.544 16.56C178.544 16.512 178.592 16.464 178.64 16.464C178.64 16.416 178.688 16.416 178.688 16.416C178.784 16.416 178.736 16.464 178.688 16.512ZM183.584 16.848C183.536 16.944 183.44 16.992 183.344 16.992C182.768 17.232 182.192 17.472 181.568 17.664C181.52 17.712 181.376 17.712 181.328 17.664C181.232 17.568 181.328 17.52 181.424 17.424C182 16.992 182.624 16.656 183.344 16.56C183.488 16.56 183.584 16.56 183.632 16.704C183.632 16.752 183.632 16.848 183.584 16.848ZM183.104 18.192C182.96 18.24 182.864 18.336 182.72 18.384C182.864 18.336 182.96 18.288 183.104 18.192ZM182.72 18.384C182.624 18.432 182.48 18.48 182.336 18.576H182.384L182.72 18.384ZM173.84 21.168V21.072C173.936 20.976 174.032 20.88 174.128 20.736C174.08 20.88 173.984 21.024 173.936 21.168H173.84ZM179.024 21.648C178.976 21.744 178.928 21.792 178.88 21.84L179.024 21.744V21.648ZM178.544 22.224L178.736 22.032C178.784 21.984 178.832 21.936 178.88 21.84C178.832 21.936 178.784 21.984 178.688 22.032L178.544 22.224ZM178.352 22.416L178.544 22.224C178.448 22.272 178.4 22.32 178.352 22.416ZM177.968 22.752C178.064 22.704 178.112 22.656 178.16 22.608L177.968 22.752ZM177.824 22.992C177.872 22.944 177.872 22.944 177.872 22.896L177.824 22.992ZM187.088 23.952C186.992 24 186.992 23.856 187.088 23.712L187.28 23.52C187.28 23.568 187.28 23.664 187.232 23.76L187.088 23.952ZM175.472 25.824C175.376 26.016 175.328 26.256 175.232 26.4C175.376 26.256 175.52 26.112 175.664 25.92C175.712 25.872 175.76 25.776 175.76 25.68C175.76 25.584 175.568 25.68 175.472 25.824ZM186.32 26.352L186.368 26.4C186.32 26.352 186.32 26.352 186.272 26.352H186.32ZM185.648 27.312C185.6 27.408 185.504 27.456 185.456 27.504C185.552 27.456 185.6 27.408 185.648 27.312ZM172.16 31.344C172.208 31.056 172.304 30.816 172.496 30.624C172.448 30.864 172.304 31.104 172.16 31.344ZM182.048 42.72C182.384 42.24 182.768 41.76 183.296 41.376C182.72 42.528 181.904 43.488 181.136 44.4C179.6 46.224 177.92 47.904 176 49.344C175.712 49.584 175.424 49.824 175.04 49.968C174.992 49.968 174.896 49.968 174.848 49.92V49.776L175.424 49.2C177.296 47.712 179.072 46.08 180.656 44.304L182.048 42.72ZM173.696 47.52C175.712 46.032 177.584 44.4 179.312 42.624C179.648 42.336 179.936 41.952 180.368 41.76C180.224 42.144 179.936 42.432 179.696 42.672L177.056 45.408C177.392 45.264 177.632 45.024 177.872 44.832C178.4 44.304 178.928 43.776 179.504 43.248C179.696 43.008 179.888 42.816 180.176 42.672C180.08 43.008 179.84 43.248 179.648 43.488C178.496 44.736 177.2 45.936 175.904 46.992C175.568 47.232 175.28 47.472 174.944 47.568L175.616 46.656C175.136 46.992 174.656 47.328 174.176 47.616C173.888 47.808 173.6 47.952 173.312 48.096C173.312 48.144 173.216 48.096 173.216 48.096V47.952L173.696 47.52ZM182.912 43.584C182.864 43.632 182.768 43.68 182.72 43.776L182.912 43.584ZM176.72 45.744C176.288 45.984 175.904 46.32 175.616 46.704C176.048 46.464 176.384 46.128 176.72 45.744ZM180.704 46.128C180.8 46.08 180.848 46.032 180.896 45.936C180.848 45.984 180.8 46.08 180.704 46.128ZM180.704 46.128C180.656 46.176 180.608 46.224 180.56 46.32C180.608 46.272 180.656 46.176 180.752 46.128H180.704ZM180.368 46.512C180.272 46.56 180.224 46.608 180.176 46.656L180.368 46.512ZM179.984 46.848C180.08 46.8 180.128 46.752 180.176 46.656C180.128 46.752 180.032 46.8 179.984 46.848ZM179.792 47.04C179.888 46.992 179.936 46.944 179.984 46.848C179.936 46.896 179.888 46.992 179.792 47.04ZM178.88 47.952C178.976 47.904 179.024 47.856 179.072 47.76C179.024 47.808 178.976 47.904 178.88 47.952ZM178.736 48.144L178.88 47.952C178.832 48 178.784 48.096 178.688 48.144H178.736ZM178.544 48.336C178.448 48.384 178.4 48.432 178.352 48.48L178.544 48.336ZM178.256 48.624C178.304 48.576 178.352 48.576 178.352 48.528L178.256 48.624ZM178.256 48.624C178.208 48.624 178.208 48.672 178.16 48.672L178.256 48.624ZM177.44 49.248C177.488 49.152 177.584 49.104 177.632 49.056C177.536 49.104 177.488 49.152 177.44 49.248ZM177.248 49.392C177.344 49.344 177.392 49.296 177.44 49.248L177.248 49.392ZM177.056 49.584C177.152 49.536 177.2 49.488 177.248 49.44V49.392C177.2 49.488 177.152 49.536 177.056 49.584ZM176.912 49.776C176.96 49.728 177.008 49.68 177.056 49.584L176.912 49.776Z" fill="white"/>
<path d="M211.953 17.952C211.569 16.848 210.993 15.84 210.369 14.88C209.841 14.064 209.121 13.44 208.305 12.96C207.633 12.528 206.865 12.336 206.049 12.48C204.945 12.672 203.841 12.96 202.881 13.584C201.825 14.256 200.865 15.024 199.857 15.744C199.809 15.792 199.761 15.84 199.713 15.84C198.609 16.752 197.841 18 196.689 18.912C196.593 18.96 196.545 19.104 196.497 19.2C195.489 20.352 194.577 21.552 193.569 22.704C193.185 23.136 192.801 23.616 192.513 24.192C191.841 25.392 191.169 26.592 190.401 27.792C190.257 28.032 190.113 28.272 190.017 28.512C189.489 29.856 188.673 31.056 188.289 32.4L188.145 32.736C187.569 33.696 187.329 34.704 187.089 35.76C186.849 36.576 186.657 37.44 186.513 38.304C186.369 39.264 186.273 40.272 186.177 41.232C186.129 41.328 186.129 41.472 186.129 41.568L186.273 43.584C186.369 45.12 186.849 46.56 187.761 47.808C188.529 48.912 189.441 49.872 190.401 50.832C190.737 51.12 191.073 51.36 191.457 51.552C192.321 52.032 193.281 52.224 194.241 52.416C194.913 52.512 195.537 52.464 196.209 52.368C197.073 52.224 197.793 51.792 198.561 51.408C199.089 51.168 199.521 50.88 199.953 50.496H199.905C200.097 50.304 200.241 50.064 200.433 49.872C200.625 49.632 200.817 49.392 201.009 49.2C201.153 49.008 201.345 49.008 201.585 49.056C201.729 48.912 201.921 48.816 202.113 48.672C202.017 48.576 201.969 48.48 202.065 48.384L202.641 47.664C203.889 46.464 205.089 45.216 206.145 43.824L207.585 41.856C207.729 41.616 207.825 41.376 207.921 41.088C208.017 40.944 207.873 40.848 207.633 40.896C207.585 40.944 207.489 40.992 207.393 40.992C207.441 40.848 207.489 40.704 207.489 40.56C207.537 40.368 207.537 40.176 207.537 39.936C207.489 39.408 207.057 39.168 206.577 39.456C206.385 39.6 206.145 39.744 205.953 39.936C206.049 39.552 206.097 39.168 206.193 38.784C206.241 38.64 206.097 38.544 206.001 38.544C205.569 38.496 205.233 38.64 204.945 38.976C204.417 39.648 203.889 40.32 203.313 40.896C202.113 42.096 200.913 43.248 199.617 44.304C198.609 45.168 197.601 46.08 196.449 46.752C195.633 47.184 194.817 47.616 193.953 47.808C193.281 47.904 193.041 47.76 192.849 47.136C192.849 47.04 192.801 46.944 192.801 46.848C192.753 46.032 192.657 45.216 192.705 44.4C192.753 43.152 192.945 41.904 193.185 40.704C193.281 40.176 193.425 39.648 193.521 39.12C193.617 38.592 193.905 38.112 193.809 37.584C193.665 36.96 194.433 36.768 194.433 36.192C194.433 36.048 194.481 35.952 194.481 35.808C194.529 35.76 194.481 35.664 194.433 35.664C194.097 35.568 194.241 35.376 194.337 35.184C194.481 34.752 194.673 34.32 194.817 33.888C194.865 33.984 194.961 33.984 195.009 33.888C195.297 33.648 195.489 33.36 195.537 32.976C195.489 33.024 195.441 33.072 195.393 33.072C195.297 33.12 195.201 33.12 195.201 32.976C195.201 32.832 195.249 32.688 195.393 32.592C195.393 32.592 195.489 32.544 195.537 32.592C195.585 32.592 195.585 32.688 195.585 32.736C195.585 32.832 195.537 32.928 195.537 32.976C196.065 32.256 196.449 31.488 196.641 30.624C196.929 30.384 197.121 30.048 197.313 29.76C197.457 29.472 197.361 29.376 197.025 29.472C196.929 29.52 196.929 29.376 196.977 29.28C197.121 28.944 197.409 28.656 197.745 28.416V28.8C198.321 28.032 198.801 27.312 199.137 26.448C199.041 26.544 198.849 26.64 198.657 26.784C198.609 26.832 198.561 26.928 198.513 27.024C198.513 27.072 198.465 27.072 198.417 27.024L198.465 26.976C198.513 26.88 198.609 26.832 198.657 26.784C198.801 26.16 199.233 25.632 199.617 25.152L200.673 23.712C201.057 23.136 201.489 22.56 201.969 22.08C202.497 21.552 202.977 21.024 203.457 20.496C203.697 20.208 203.937 19.968 204.321 19.824C204.129 20.256 203.697 20.496 203.553 20.928C203.793 20.784 204.033 20.64 204.225 20.448C204.849 19.872 205.617 19.44 206.145 18.768C205.761 18.912 205.425 19.152 205.089 19.392C204.849 19.584 204.609 19.776 204.321 19.872C205.137 18.72 206.241 18 207.585 17.616C207.633 17.568 207.729 17.616 207.729 17.616C207.825 17.712 207.729 17.808 207.681 17.856C207.441 17.952 207.249 18.096 207.057 18.192L208.305 17.904C208.737 17.808 208.929 18 208.785 18.48C208.689 18.816 208.545 19.2 208.401 19.536C208.065 20.352 207.873 21.216 207.489 21.984C207.009 22.8 206.529 23.616 206.097 24.432C205.953 24.72 205.809 24.96 205.713 25.248C205.617 25.488 205.569 25.776 205.713 25.968C205.953 26.4 206.001 26.88 206.049 27.36C206.097 27.744 206.385 27.888 206.769 27.792C207.009 27.696 207.201 27.552 207.489 27.6C207.489 27.6 207.585 27.696 207.537 27.744C207.489 27.84 207.345 27.936 207.249 28.08C207.201 28.128 207.153 28.224 207.249 28.32C207.297 28.368 207.393 28.368 207.489 28.368L207.825 28.224C208.161 28.032 208.497 27.792 208.881 27.696C209.121 27.888 209.265 27.648 209.409 27.504H209.073C209.169 27.216 209.409 27.024 209.649 26.88C209.937 26.784 210.177 26.64 210.321 26.4V26.448C210.465 26.16 210.561 25.92 210.705 25.68C210.849 25.248 211.041 24.864 211.329 24.48C211.857 23.808 212.097 22.992 212.289 22.128C212.625 20.736 212.481 19.296 211.953 17.952ZM203.937 15.12C204.609 14.4 205.473 14.16 206.385 14.016C206.481 13.968 206.577 14.016 206.577 14.112C206.577 14.16 206.529 14.304 206.433 14.304C205.617 14.592 204.801 14.928 203.937 15.12ZM205.761 15.168C205.521 15.216 205.329 15.264 205.089 15.264C205.281 15.12 205.473 15.024 205.665 14.928C205.953 14.784 206.241 14.592 206.577 14.688C206.817 14.736 206.385 15.024 205.761 15.168ZM202.641 16.512C202.593 16.512 202.545 16.56 202.497 16.56C202.257 16.896 201.969 17.184 201.585 17.28C201.777 16.944 202.113 16.704 202.497 16.56C202.497 16.512 202.545 16.464 202.593 16.464C202.593 16.416 202.641 16.416 202.641 16.416C202.737 16.416 202.689 16.464 202.641 16.512ZM207.537 16.848C207.489 16.944 207.393 16.992 207.297 16.992C206.721 17.232 206.145 17.472 205.521 17.664C205.473 17.712 205.329 17.712 205.281 17.664C205.185 17.568 205.281 17.52 205.377 17.424C205.953 16.992 206.577 16.656 207.297 16.56C207.441 16.56 207.537 16.56 207.585 16.704C207.585 16.752 207.585 16.848 207.537 16.848ZM207.057 18.192C206.913 18.24 206.817 18.336 206.673 18.384C206.817 18.336 206.913 18.288 207.057 18.192ZM206.673 18.384C206.577 18.432 206.433 18.48 206.289 18.576H206.337L206.673 18.384ZM197.793 21.168V21.072C197.889 20.976 197.985 20.88 198.081 20.736C198.033 20.88 197.937 21.024 197.889 21.168H197.793ZM202.977 21.648C202.929 21.744 202.881 21.792 202.833 21.84L202.977 21.744V21.648ZM202.497 22.224L202.689 22.032C202.737 21.984 202.785 21.936 202.833 21.84C202.785 21.936 202.737 21.984 202.641 22.032L202.497 22.224ZM202.305 22.416L202.497 22.224C202.401 22.272 202.353 22.32 202.305 22.416ZM201.921 22.752C202.017 22.704 202.065 22.656 202.113 22.608L201.921 22.752ZM201.777 22.992C201.825 22.944 201.825 22.944 201.825 22.896L201.777 22.992ZM211.041 23.952C210.945 24 210.945 23.856 211.041 23.712L211.233 23.52C211.233 23.568 211.233 23.664 211.185 23.76L211.041 23.952ZM199.425 25.824C199.329 26.016 199.281 26.256 199.185 26.4C199.329 26.256 199.473 26.112 199.617 25.92C199.665 25.872 199.713 25.776 199.713 25.68C199.713 25.584 199.521 25.68 199.425 25.824ZM210.273 26.352L210.321 26.4C210.273 26.352 210.273 26.352 210.225 26.352H210.273ZM209.601 27.312C209.553 27.408 209.457 27.456 209.409 27.504C209.505 27.456 209.553 27.408 209.601 27.312ZM196.113 31.344C196.161 31.056 196.257 30.816 196.449 30.624C196.401 30.864 196.257 31.104 196.113 31.344ZM206.001 42.72C206.337 42.24 206.721 41.76 207.249 41.376C206.673 42.528 205.857 43.488 205.089 44.4C203.553 46.224 201.873 47.904 199.953 49.344C199.665 49.584 199.377 49.824 198.993 49.968C198.945 49.968 198.849 49.968 198.801 49.92V49.776L199.377 49.2C201.249 47.712 203.025 46.08 204.609 44.304L206.001 42.72ZM197.649 47.52C199.665 46.032 201.537 44.4 203.265 42.624C203.601 42.336 203.889 41.952 204.321 41.76C204.177 42.144 203.889 42.432 203.649 42.672L201.009 45.408C201.345 45.264 201.585 45.024 201.825 44.832C202.353 44.304 202.881 43.776 203.457 43.248C203.649 43.008 203.841 42.816 204.129 42.672C204.033 43.008 203.793 43.248 203.601 43.488C202.449 44.736 201.153 45.936 199.857 46.992C199.521 47.232 199.233 47.472 198.897 47.568L199.569 46.656C199.089 46.992 198.609 47.328 198.129 47.616C197.841 47.808 197.553 47.952 197.265 48.096C197.265 48.144 197.169 48.096 197.169 48.096V47.952L197.649 47.52ZM206.865 43.584C206.817 43.632 206.721 43.68 206.673 43.776L206.865 43.584ZM200.673 45.744C200.241 45.984 199.857 46.32 199.569 46.704C200.001 46.464 200.337 46.128 200.673 45.744ZM204.657 46.128C204.753 46.08 204.801 46.032 204.849 45.936C204.801 45.984 204.753 46.08 204.657 46.128ZM204.657 46.128C204.609 46.176 204.561 46.224 204.513 46.32C204.561 46.272 204.609 46.176 204.705 46.128H204.657ZM204.321 46.512C204.225 46.56 204.177 46.608 204.129 46.656L204.321 46.512ZM203.937 46.848C204.033 46.8 204.081 46.752 204.129 46.656C204.081 46.752 203.985 46.8 203.937 46.848ZM203.745 47.04C203.841 46.992 203.889 46.944 203.937 46.848C203.889 46.896 203.841 46.992 203.745 47.04ZM202.833 47.952C202.929 47.904 202.977 47.856 203.025 47.76C202.977 47.808 202.929 47.904 202.833 47.952ZM202.689 48.144L202.833 47.952C202.785 48 202.737 48.096 202.641 48.144H202.689ZM202.497 48.336C202.401 48.384 202.353 48.432 202.305 48.48L202.497 48.336ZM202.209 48.624C202.257 48.576 202.305 48.576 202.305 48.528L202.209 48.624ZM202.209 48.624C202.161 48.624 202.161 48.672 202.113 48.672L202.209 48.624ZM201.393 49.248C201.441 49.152 201.537 49.104 201.585 49.056C201.489 49.104 201.441 49.152 201.393 49.248ZM201.201 49.392C201.297 49.344 201.345 49.296 201.393 49.248L201.201 49.392ZM201.009 49.584C201.105 49.536 201.153 49.488 201.201 49.44V49.392C201.153 49.488 201.105 49.536 201.009 49.584ZM200.865 49.776C200.913 49.728 200.961 49.68 201.009 49.584L200.865 49.776Z" fill="white"/>
</svg>
